<?xml version="1.0" encoding="utf-8"?>
<!DOCTYPE svg PUBLIC "-//W3C//DTD SVG 1.1//EN" "http://www.w3.org/Graphics/SVG/1.1/DTD/svg11.dtd">
<svg xmlns="http://www.w3.org/2000/svg" xmlns:xlink="http://www.w3.org/1999/xlink" version="1.1" baseProfile="full" width="64" height="64" viewBox="0 0 64.00 64.00" enable-background="new 0 0 64.00 64.00" xml:space="preserve">
	<path fill="#9F9F9F" fill-opacity="1" stroke-width="0.2" stroke-linejoin="round" d="M 36.8922,4.238L 57.718,40.3095L 60.962,59.8122L 45.6942,47.2514L 24.8683,11.18L 24.0933,9.83753C 22.3914,6.88973 23.7033,2.94606 27.0236,1.02909C 30.3439,-0.88788 34.4152,-0.0522251 36.1171,2.89557L 36.8922,4.238 Z "/>
	<path fill="#1F1F1F" fill-opacity="1" stroke-width="0.2" stroke-linejoin="round" d="M 28.9797,10.5877L 49.0342,45.3231L 45.6943,47.2515L 25.6397,12.516L 24.8684,11.18L 36.8922,4.23809L 37.6636,5.57405L 57.7181,40.3095L 54.3781,42.2378L 34.3236,7.50237L 28.9797,10.5877 Z "/>
	<path fill="#1F1F1F" fill-opacity="1" stroke-width="0.2" stroke-linejoin="round" d="M 60.2863,55.7492L 60.9621,59.8122L 60.9576,59.8085C 57.1767,56.8686 51.707,57.1342 48.2301,60.6086L 48.2327,60.6112C 43.7143,65.1296 36.3887,65.1296 31.8704,60.6112C 30.7897,59.5306 29.9676,58.2894 29.4038,56.9644C 26.9357,56.9631 24.4671,57.9036 22.5835,59.7859L 22.5861,59.7885C 18.0678,64.3068 10.7421,64.3068 6.22382,59.7885C 4.51731,58.082 3.45532,55.975 3.03786,53.7701C 6.8194,56.7133 12.2891,56.4478 15.766,52.9733L 15.7634,52.9707C 20.2817,48.4524 27.6074,48.4524 32.1257,52.9707C 33.2063,54.0514 34.0285,55.2926 34.5923,56.6176C 37.0604,56.6189 39.5289,55.6784 41.4126,53.7961L 41.41,53.7935C 43.6529,51.5506 46.5876,50.421 49.5273,50.4049L 57.7813,57.1954L 57.1055,53.1324L 60.2863,55.7492 Z "/>
</svg>
